<svg width="112" height="112" viewBox="0 0 112 112" fill="none" xmlns="http://www.w3.org/2000/svg">
<circle cx="56.5" cy="56.5" r="27.5" fill="#BF3939"/>
<circle cx="56" cy="56" r="38" stroke="#BF3939" stroke-dasharray="4 2"/>
<circle cx="56" cy="56" r="55" stroke="#BF3939" stroke-dasharray="4 2"/>
<g clip-path="url(#clip0)">
<path d="M64.1127 51.1286C63.4436 49.8857 62.4255 48.8429 61.16 48.1143C59.9091 47.3857 58.4691 47 57 47C54.8764 47.0143 52.8545 47.8143 51.3418 49.2429C49.8436 50.6714 49 52.6 49 54.6286C49 56.2714 49.5527 57.8714 50.6 59.1857L56.5055 66.7714C56.52 66.7857 56.5491 66.8 56.5636 66.8143C56.6218 66.8714 56.6945 66.9286 56.7818 66.9571C56.8545 67 56.9564 67.0143 57.0436 67C57.1309 67 57.2182 66.9857 57.2909 66.9429C57.3782 66.9 57.4364 66.8429 57.4945 66.7714C59.1964 64.6 62.3236 60.5714 63.5164 59.0429C64.3745 57.9 64.8836 56.5571 64.9855 55.1571C65.0873 53.7714 64.7818 52.3714 64.1127 51.1286ZM60.0545 57.5286C59.24 58.3 58.1491 58.7286 57 58.7286C56.1418 58.7286 55.3127 58.5 54.6 58.0429C53.9018 57.5857 53.3345 56.9429 53.0145 56.2C52.6945 55.4429 52.6073 54.6143 52.7673 53.8286C52.9418 53.0286 53.3491 52.3 53.9455 51.7143C54.5564 51.1429 55.3273 50.7571 56.1564 50.6C57 50.4286 57.8727 50.5143 58.6582 50.8286C59.4436 51.1429 60.1127 51.6714 60.5927 52.3429C61.0727 53.0143 61.32 53.8143 61.32 54.6286C61.32 55.7143 60.8545 56.7571 60.0545 57.5286Z" fill="white"/>
</g>
<defs>
<clipPath id="clip0">
<rect width="16" height="20" fill="white" transform="translate(49 47)"/>
</clipPath>
</defs>
</svg>
