<svg xmlns="http://www.w3.org/2000/svg" width="42" height="42" fill="none" viewBox="0 0 42 42"><circle cx="21" cy="21" r="21" fill="#000"/><g clip-path="url(#clip0)"><path fill="#fff" d="M26.39 16.89C25.93 16.02 25.23 15.29 24.36 14.78C23.5 14.27 22.51 14 21.5 14C20.04 14.01 18.65 14.57 17.61 15.57C16.58 16.57 16 17.92 16 19.34C16 20.49 16.38 21.61 17.1 22.53L21.16 27.84C21.17 27.85 21.19 27.86 21.2 27.87C21.24 27.91 21.29 27.95 21.35 27.97C21.4 28 21.47 28.01 21.53 28C21.59 28 21.65 27.99 21.7 27.96C21.76 27.93 21.8 27.89 21.84 27.84C23.01 26.32 25.16 23.5 25.98 22.43C26.57 21.63 26.92 20.69 26.99 19.71C27.06 18.74 26.85 17.76 26.39 16.89ZM23.6 21.37C23.04 21.91 22.29 22.21 21.5 22.21C20.91 22.21 20.34 22.05 19.85 21.73C19.37 21.41 18.98 20.96 18.76 20.44C18.54 19.91 18.48 19.33 18.59 18.78C18.71 18.22 18.99 17.71 19.4 17.3C19.82 16.9 20.35 16.63 20.92 16.52C21.5 16.4 22.1 16.46 22.64 16.68C23.18 16.9 23.64 17.27 23.97 17.74C24.3 18.21 24.47 18.77 24.47 19.34C24.47 20.1 24.15 20.83 23.6 21.37Z"/></g><defs><clipPath id="clip0"><rect width="11" height="14" fill="#fff" transform="translate(16 14)"/></clipPath></defs></svg>