<svg xmlns="http://www.w3.org/2000/svg" width="13.368" height="17.549" viewBox="0 0 13.368 17.549"><defs><style>.a{fill:#fff}</style></defs><g><g><path d="M67.684,0A6.691,6.691,0,0,0,61,6.684a6.624,6.624,0,0,0,1.333,4.007l4.938,6.651c.012.016.031.022.045.037a.5.5,0,0,0,.779-.037c1.422-1.9,4.029-5.441,5.031-6.778v0l.006-.008A6.684,6.684,0,0,0,67.684,0Zm0,10.29A3.606,3.606,0,1,1,71.29,6.684,3.615,3.615,0,0,1,67.684,10.29Z" class="a" transform="translate(-61) translate(61) translate(-61)"/></g></g></svg>