<?xml version="1.0" standalone="no"?>
<!DOCTYPE svg PUBLIC "-//W3C//DTD SVG 20010904//EN"
 "http://www.w3.org/TR/2001/REC-SVG-20010904/DTD/svg10.dtd">
<svg version="1.0" xmlns="http://www.w3.org/2000/svg"
 width="160.000000pt" height="160.000000pt" viewBox="0 0 160.000000 160.000000"
 preserveAspectRatio="xMidYMid meet">
<metadata>
Created by potrace 1.14, written by Peter Selinger 2001-2017
</metadata>
<g transform="translate(0.000000,160.000000) scale(0.100000,-0.100000)"
fill="#000000" stroke="none">
<path d="M670 1573 c-14 -2 -61 -16 -105 -29 -160 -51 -275 -132 -388 -273
-96 -119 -154 -299 -154 -471 0 -315 199 -604 495 -719 106 -41 119 -43 257
-47 127 -3 195 7 303 48 251 94 449 341 487 608 6 38 7 120 4 205 -3 72 -49
203 -110 315 -81 149 -277 295 -464 346 -57 15 -269 27 -325 17z m206 -109
c74 -9 76 -11 54 -74 -10 -30 -42 -129 -70 -220 -28 -91 -54 -172 -57 -180 -3
-8 -21 32 -40 90 -80 247 -114 363 -106 371 16 15 140 23 219 13z m-373 -126
c8 -29 42 -140 76 -245 34 -106 88 -277 120 -380 72 -229 69 -220 89 -228 33
-12 27 -27 184 470 33 105 76 242 95 305 20 63 39 118 42 122 10 11 110 -59
164 -116 95 -98 168 -243 183 -367 7 -53 6 -155 -1 -189 -2 -14 -7 -38 -11
-55 -46 -232 -245 -433 -490 -495 -103 -27 -259 -22 -354 10 -228 77 -398 260
-451 487 -15 65 -19 188 -8 248 5 28 11 59 13 70 16 85 101 228 183 307 45 43
130 107 144 108 3 0 13 -24 22 -52z"/>
</g>
</svg>
